<svg width="30" height="17" viewBox="0 0 30 17" fill="none" xmlns="http://www.w3.org/2000/svg">
<path d="M30 8.49998C30 13.1414 26.2375 16.9017 21.5961 16.9017C19.1397 16.9017 16.9302 15.8492 15.3927 14.1693C16.2694 13.0924 16.8991 11.8108 17.2039 10.4091C17.9426 12.1001 19.6336 13.2882 21.5961 13.2882C24.2372 13.2882 26.3843 11.1411 26.3843 8.49998C26.3843 5.85888 24.2372 3.70951 21.5961 3.70951C19.6336 3.70951 17.9426 4.89545 17.2039 6.59091C16.948 7.1761 16.8056 7.82135 16.8056 8.49998C16.8056 10.4669 16.1292 12.2736 14.9989 13.7065C14.4983 14.3407 13.9086 14.8992 13.2478 15.3664C11.8772 16.3343 10.2062 16.9017 8.40169 16.9017C3.76252 16.9039 0 13.1414 0 8.49998C0 3.85858 3.76252 0.0960693 8.40392 0.0960693C10.2084 0.0960693 11.8794 0.665675 13.25 1.63356C12.4779 2.5703 11.8616 3.63608 11.4366 4.79532C10.6111 4.11669 9.55425 3.70951 8.40392 3.70951C5.76281 3.70951 3.61566 5.85888 3.61566 8.49998C3.61566 11.1411 5.76281 13.2882 8.40392 13.2882C9.55425 13.2882 10.6111 12.8811 11.4366 12.2024C12.5091 11.3235 13.1922 9.99075 13.1922 8.49998C13.1922 6.53306 13.8686 4.72634 14.9989 3.29343C15.1235 3.13323 15.257 2.9797 15.3949 2.8284C16.9324 1.14851 19.1419 0.0960693 21.5961 0.0960693C26.2375 0.0960693 30 3.85858 30 8.49998Z" fill="#048A81"/>
</svg>
